Hornet_IFEI_Digital-7.sfdir
StartChar: quotedbl
Encoding: 34 34 5
Width: 500
GlyphClass: 2
Flags: W
LayerCount: 2
Fore
SplineSet
220 560 m 1,0,-1
 180 520 l 1,1,-1
 140 560 l 1,2,-1
 140 720 l 1,3,-1
 220 720 l 1,4,-1
 220 560 l 1,0,-1
381 561 m 1,5,-1
 341 521 l 1,6,-1
 301 561 l 1,7,-1
 301 721 l 1,8,-1
 381 721 l 1,9,-1
 381 561 l 1,5,-1
EndSplineSet
EndChar
StartChar: parenleft
Encoding: 40 40 11
Width: 500
GlyphClass: 2
Flags: W
LayerCount: 2
Fore
SplineSet
250 640 m 1,0,-1
 140 640 l 1,1,-1
 100 680 l 1,2,-1
 140 720 l 1,3,-1
 250 720 l 1,4,-1
 290 680 l 1,5,-1
 250 640 l 1,0,-1
60 370 m 1,6,-1
 40 390 l 1,7,-1
 40 620 l 1,8,-1
 90 670 l 1,9,-1
 120 640 l 1,10,-1
 120 430 l 1,11,-1
 60 370 l 1,6,-1
290 40 m 1,12,-1
 250 0 l 1,13,-1
 140 0 l 1,14,-1
 100 40 l 1,15,-1
 140 80 l 1,16,-1
 250 80 l 1,17,-1
 290 40 l 1,12,-1
120 290 m 1,18,-1
 120 80 l 1,19,-1
 90 50 l 1,20,-1
 40 100 l 1,21,-1
 40 330 l 1,22,-1
 60 350 l 1,23,-1
 120 290 l 1,18,-1
EndSplineSet
EndChar
StartChar: slash
Encoding: 47 47 18
Width: 500
GlyphClass: 2
Flags: W
LayerCount: 2
Fore
SplineSet
261 478 m 1,0,-1
 380 720 l 1,1,2
 440 720 440 720 460 680 c 1,3,-1
 306 370 l 1,4,-1
 261 370 l 1,5,-1
 261 478 l 1,0,-1
239 242 m 1,6,-1
 120 0 l 1,7,8
 60 0 60 0 40 40 c 1,9,-1
 194 350 l 1,10,-1
 239 350 l 1,11,-1
 239 242 l 1,6,-1
EndSplineSet
EndChar
StartChar: one
Encoding: 49 49 20
Width: 500
GlyphClass: 2
Flags: W
LayerCount: 2
Fore
SplineSet
440 350 m 1,0,-1
 460 330 l 1,1,-1
 460 50 l 1,2,3
 450 10 450 10 410 0 c 1,4,-1
 380 80 l 1,5,-1
 380 290 l 1,6,-1
 440 350 l 1,0,-1
380 430 m 1,7,-1
 380 640 l 1,8,-1
 410 720 l 1,9,10
 450 710 450 710 460 670 c 1,11,-1
 460 390 l 1,12,-1
 440 370 l 1,13,-1
 380 430 l 1,7,-1
EndSplineSet
Validated: 1
EndChar
StartChar: nine
Encoding: 57 57 28
Width: 500
GlyphClass: 2
Flags: W
LayerCount: 2
Fore
SplineSet
380 400 m 1,0,-1
 420 360 l 1,1,-1
 380 320 l 1,2,-1
 120 320 l 1,3,-1
 80 360 l 1,4,-1
 120 400 l 1,5,-1
 380 400 l 1,0,-1
440 350 m 1,6,-1
 460 330 l 1,7,-1
 460 50 l 1,8,9
 450 10 450 10 410 0 c 1,10,-1
 380 80 l 1,11,-1
 380 290 l 1,12,-1
 440 350 l 1,6,-1
390 0 m 1,13,-1
 90 0 l 1,14,15
 50 10 50 10 40 50 c 1,16,-1
 120 80 l 1,17,-1
 360 80 l 1,18,-1
 390 0 l 1,13,-1
360 640 m 1,19,-1
 121 640 l 1,20,-1
 41 670 l 1,21,22
 51 710 51 710 91 720 c 1,23,-1
 390 720 l 1,24,-1
 360 640 l 1,19,-1
120 620 m 1,25,-1
 120 430 l 1,26,-1
 60 370 l 1,27,-1
 40 390 l 1,28,-1
 40 650 l 1,29,-1
 120 620 l 1,25,-1
380 430 m 1,30,-1
 380 640 l 1,31,-1
 410 720 l 1,32,33
 450 710 450 710 460 670 c 1,34,-1
 460 390 l 1,35,-1
 440 370 l 1,36,-1
 380 430 l 1,30,-1
EndSplineSet
EndChar
StartChar: greater
Encoding: 62 62 33
Width: 500
GlyphClass: 2
Flags: W
LayerCount: 2
Fore
SplineSet
100 531 m 1,0,-1
 130 570 l 1,1,-1
 170 570 l 1,2,-1
 370 370 l 1,3,-1
 260 370 l 1,4,-1
 100 531 l 1,0,-1
260 350 m 1,5,-1
 370 350 l 1,6,-1
 170 150 l 1,7,-1
 130 150 l 1,8,-1
 100 189 l 1,9,-1
 260 350 l 1,5,-1
EndSplineSet
Validated: 1
EndChar
StartChar: B
Encoding: 66 66 37
Width: 500
GlyphClass: 2
Flags: W
LayerCount: 2
Fore
SplineSet
380 400 m 1,0,-1
 420 360 l 1,1,-1
 380 320 l 1,2,-1
 120 320 l 1,3,-1
 80 360 l 1,4,-1
 120 400 l 1,5,-1
 380 400 l 1,0,-1
40 70 m 1,6,-1
 40 330 l 1,7,-1
 60 350 l 1,8,-1
 120 290 l 1,9,-1
 120 100 l 1,10,-1
 40 70 l 1,6,-1
360 640 m 1,11,-1
 120 640 l 1,12,-1
 40 670 l 1,13,-1
 40 720 l 1,14,-1
 360 720 l 1,15,-1
 400 680 l 1,16,-1
 360 640 l 1,11,-1
120 620 m 1,17,-1
 120 430 l 1,18,-1
 60 370 l 1,19,-1
 40 390 l 1,20,-1
 40 650 l 1,21,-1
 120 620 l 1,17,-1
380 430 m 1,22,-1
 380 640 l 1,23,-1
 410 670 l 1,24,-1
 460 620 l 1,25,-1
 460 390 l 1,26,-1
 440 370 l 1,27,-1
 380 430 l 1,22,-1
440 350 m 1,28,-1
 460 330 l 1,29,-1
 460 100 l 1,30,-1
 410 50 l 1,31,-1
 380 80 l 1,32,-1
 380 290 l 1,33,-1
 440 350 l 1,28,-1
399 40 m 1,34,-1
 359 0 l 1,35,-1
 40 0 l 1,36,-1
 40 50 l 1,37,-1
 120 80 l 1,38,-1
 359 80 l 1,39,-1
 399 40 l 1,34,-1
EndSplineSet
EndChar
StartChar: G
Encoding: 71 71 42
Width: 500
GlyphClass: 2
Flags: W
LayerCount: 2
Fore
SplineSet
380 400 m 1,0,-1
 420 360 l 1,1,-1
 380 320 l 1,2,-1
 290 320 l 1,3,-1
 250 360 l 1,4,-1
 290 400 l 1,5,-1
 380 400 l 1,0,-1
440 350 m 1,6,-1
 460 330 l 1,7,-1
 460 50 l 1,8,9
 450 10 450 10 410 0 c 1,10,-1
 380 80 l 1,11,-1
 380 290 l 1,12,-1
 440 350 l 1,6,-1
390 0 m 1,13,-1
 90 0 l 1,14,15
 50 10 50 10 40 50 c 1,16,-1
 120 80 l 1,17,-1
 360 80 l 1,18,-1
 390 0 l 1,13,-1
40 70 m 1,19,-1
 40 330 l 1,20,-1
 60 350 l 1,21,-1
 120 290 l 1,22,-1
 120 100 l 1,23,-1
 40 70 l 1,19,-1
390 640 m 1,24,-1
 121 640 l 1,25,-1
 41 670 l 1,26,27
 51 710 51 710 91 720 c 1,28,-1
 420 720 l 1,29,-1
 390 640 l 1,24,-1
120 620 m 1,30,-1
 120 430 l 1,31,-1
 60 370 l 1,32,-1
 40 390 l 1,33,-1
 40 650 l 1,34,-1
 120 620 l 1,30,-1
EndSplineSet
EndChar
StartChar: K
Encoding: 75 75 46
Width: 500
GlyphClass: 2
Flags: W
LayerCount: 2
Fore
SplineSet
380 400 m 1,0,-1
 420 360 l 1,1,-1
 380 320 l 1,2,-1
 120 320 l 1,3,-1
 80 360 l 1,4,-1
 120 400 l 1,5,-1
 380 400 l 1,0,-1
440 350 m 1,6,-1
 460 330 l 1,7,-1
 460 50 l 1,8,9
 450 10 450 10 410 0 c 1,10,-1
 380 80 l 1,11,-1
 380 290 l 1,12,-1
 440 350 l 1,6,-1
140 480 m 1,13,-1
 380 720 l 1,14,15
 440 720 440 720 460 680 c 1,16,-1
 200 420 l 1,17,-1
 140 420 l 1,18,-1
 140 480 l 1,13,-1
120 290 m 1,19,-1
 120 80 l 1,20,-1
 90 0 l 1,21,22
 50 10 50 10 40 50 c 1,23,-1
 40 330 l 1,24,-1
 60 350 l 1,25,-1
 120 290 l 1,19,-1
60 370 m 1,26,-1
 40 390 l 1,27,-1
 40 670 l 1,28,29
 50 710 50 710 90 720 c 1,30,-1
 120 640 l 1,31,-1
 120 430 l 1,32,-1
 60 370 l 1,26,-1
EndSplineSet
Validated: 1
EndChar
StartChar: Q
Encoding: 81 81 52
Width: 500
GlyphClass: 2
Flags: W
LayerCount: 2
Fore
SplineSet
440 350 m 1,0,-1
 460 330 l 1,1,-1
 460 90 l 1,2,-1
 380 170 l 1,3,-1
 380 290 l 1,4,-1
 440 350 l 1,0,-1
370 0 m 1,5,-1
 90 0 l 1,6,7
 50 10 50 10 40 50 c 1,8,-1
 120 80 l 1,9,-1
 290 80 l 1,10,-1
 370 0 l 1,5,-1
40 70 m 1,11,-1
 40 330 l 1,12,-1
 60 350 l 1,13,-1
 120 290 l 1,14,-1
 120 100 l 1,15,-1
 40 70 l 1,11,-1
360 640 m 1,16,-1
 121 640 l 1,17,-1
 41 670 l 1,18,19
 51 710 51 710 91 720 c 1,20,-1
 390 720 l 1,21,-1
 360 640 l 1,16,-1
120 620 m 1,22,-1
 120 430 l 1,23,-1
 60 370 l 1,24,-1
 40 390 l 1,25,-1
 40 650 l 1,26,-1
 120 620 l 1,22,-1
380 430 m 1,27,-1
 380 640 l 1,28,-1
 410 720 l 1,29,30
 450 710 450 710 460 670 c 1,31,-1
 460 390 l 1,32,-1
 440 370 l 1,33,-1
 380 430 l 1,27,-1
280 180 m 1,34,-1
 340 180 l 1,35,-1
 470 50 l 1,36,-1
 470 -10 l 1,37,-1
 410 -10 l 1,38,-1
 280 120 l 1,39,-1
 280 180 l 1,34,-1
EndSplineSet
Validated: 1
EndChar
StartChar: Y
Encoding: 89 89 60
Width: 500
GlyphClass: 2
Flags: W
LayerCount: 2
Fore
SplineSet
380 400 m 1,0,-1
 420 360 l 1,1,-1
 380 320 l 1,2,-1
 120 320 l 1,3,-1
 80 360 l 1,4,-1
 120 400 l 1,5,-1
 380 400 l 1,0,-1
440 350 m 1,6,-1
 460 330 l 1,7,-1
 460 50 l 1,8,9
 450 10 450 10 410 0 c 1,10,-1
 380 80 l 1,11,-1
 380 290 l 1,12,-1
 440 350 l 1,6,-1
390 0 m 1,13,-1
 90 0 l 1,14,15
 50 10 50 10 40 50 c 1,16,-1
 120 80 l 1,17,-1
 360 80 l 1,18,-1
 390 0 l 1,13,-1
120 650 m 1,19,-1
 120 430 l 1,20,-1
 60 370 l 1,21,-1
 40 390 l 1,22,-1
 40 680 l 1,23,-1
 120 650 l 1,19,-1
380 430 m 1,24,-1
 380 640 l 1,25,-1
 410 720 l 1,26,27
 450 710 450 710 460 670 c 1,28,-1
 460 390 l 1,29,-1
 440 370 l 1,30,-1
 380 430 l 1,24,-1
EndSplineSet
Validated: 1
EndChar
StartChar: bracketright
Encoding: 93 93 64
Width: 500
GlyphClass: 2
Flags: W
LayerCount: 2
Fore
SplineSet
440 350 m 1,0,-1
 460 330 l 1,1,-1
 460 50 l 1,2,3
 450 10 450 10 410 0 c 1,4,-1
 380 80 l 1,5,-1
 380 290 l 1,6,-1
 440 350 l 1,0,-1
360 640 m 1,7,-1
 310 640 l 1,8,-1
 250 700 l 1,9,-1
 270 720 l 1,10,-1
 390 720 l 1,11,-1
 360 640 l 1,7,-1
380 430 m 1,12,-1
 380 640 l 1,13,-1
 410 720 l 1,14,15
 450 710 450 710 460 670 c 1,16,-1
 460 390 l 1,17,-1
 440 370 l 1,18,-1
 380 430 l 1,12,-1
390 0 m 1,19,-1
 270 0 l 1,20,-1
 250 20 l 1,21,-1
 310 80 l 1,22,-1
 360 80 l 1,23,-1
 390 0 l 1,19,-1
EndSplineSet
EndChar
StartChar: underscore
Encoding: 95 95 66
Width: 500
GlyphClass: 2
Flags: W
LayerCount: 2
Fore
SplineSet
379 80 m 1,0,-1
 459 50 l 1,1,2
 449 10 449 10 409 0 c 1,3,-1
 90 0 l 1,4,5
 50 10 50 10 40 50 c 1,6,-1
 120 80 l 1,7,-1
 379 80 l 1,0,-1
EndSplineSet
Validated: 1
EndChar
StartChar: d
Encoding: 100 100 71
Width: 500
GlyphClass: 2
Flags: W
LayerCount: 2
Fore
SplineSet
40 70 m 1,0,-1
 40 330 l 1,1,-1
 60 350 l 1,2,-1
 120 290 l 1,3,-1
 120 100 l 1,4,-1
 40 70 l 1,0,-1
360 640 m 1,5,-1
 120 640 l 1,6,-1
 40 670 l 1,7,-1
 40 720 l 1,8,-1
 360 720 l 1,9,-1
 400 680 l 1,10,-1
 360 640 l 1,5,-1
120 620 m 1,11,-1
 120 430 l 1,12,-1
 60 370 l 1,13,-1
 40 390 l 1,14,-1
 40 650 l 1,15,-1
 120 620 l 1,11,-1
380 430 m 1,16,-1
 380 640 l 1,17,-1
 410 670 l 1,18,-1
 460 620 l 1,19,-1
 460 390 l 1,20,-1
 440 370 l 1,21,-1
 380 430 l 1,16,-1
440 350 m 1,22,-1
 460 330 l 1,23,-1
 460 100 l 1,24,-1
 410 50 l 1,25,-1
 380 80 l 1,26,-1
 380 290 l 1,27,-1
 440 350 l 1,22,-1
399 40 m 1,28,-1
 359 0 l 1,29,-1
 40 0 l 1,30,-1
 40 50 l 1,31,-1
 120 80 l 1,32,-1
 359 80 l 1,33,-1
 399 40 l 1,28,-1
EndSplineSet
EndChar
StartChar: h
Encoding: 104 104 75
Width: 500
GlyphClass: 2
Flags: W
LayerCount: 2
Fore
SplineSet
380 400 m 1,0,-1
 420 360 l 1,1,-1
 380 320 l 1,2,-1
 120 320 l 1,3,-1
 80 360 l 1,4,-1
 120 400 l 1,5,-1
 380 400 l 1,0,-1
440 350 m 1,6,-1
 460 330 l 1,7,-1
 460 50 l 1,8,9
 450 10 450 10 410 0 c 1,10,-1
 380 80 l 1,11,-1
 380 290 l 1,12,-1
 440 350 l 1,6,-1
380 430 m 1,13,-1
 380 640 l 1,14,-1
 410 720 l 1,15,16
 450 710 450 710 460 670 c 1,17,-1
 460 390 l 1,18,-1
 440 370 l 1,19,-1
 380 430 l 1,13,-1
120 290 m 1,20,-1
 120 80 l 1,21,-1
 90 0 l 1,22,23
 50 10 50 10 40 50 c 1,24,-1
 40 330 l 1,25,-1
 60 350 l 1,26,-1
 120 290 l 1,20,-1
60 360 m 1,27,-1
 40 380 l 1,28,-1
 40 660 l 1,29,30
 50 700 50 700 90 710 c 1,31,-1
 120 630 l 1,32,-1
 120 420 l 1,33,-1
 60 360 l 1,27,-1
EndSplineSet
EndChar
StartChar: n
Encoding: 110 110 81
Width: 500
GlyphClass: 2
Flags: W
LayerCount: 2
Fore
SplineSet
120 290 m 1,0,-1
 120 80 l 1,1,-1
 90 0 l 1,2,3
 50 10 50 10 40 50 c 1,4,-1
 40 330 l 1,5,-1
 60 350 l 1,6,-1
 120 290 l 1,0,-1
360 420 m 1,7,-1
 290 420 l 1,8,-1
 140 570 l 1,9,-1
 140 630 l 1,10,-1
 200 630 l 1,11,-1
 360 470 l 1,12,-1
 360 420 l 1,7,-1
440 350 m 1,13,-1
 460 330 l 1,14,-1
 460 50 l 1,15,16
 450 10 450 10 410 0 c 1,17,-1
 380 80 l 1,18,-1
 380 290 l 1,19,-1
 440 350 l 1,13,-1
380 420 m 1,20,-1
 380 630 l 1,21,-1
 410 710 l 1,22,23
 450 700 450 700 460 660 c 1,24,-1
 460 380 l 1,25,-1
 440 360 l 1,26,-1
 380 420 l 1,20,-1
60 360 m 1,27,-1
 40 380 l 1,28,-1
 40 660 l 1,29,30
 50 700 50 700 90 710 c 1,31,-1
 120 630 l 1,32,-1
 120 420 l 1,33,-1
 60 360 l 1,27,-1
EndSplineSet
EndChar
StartChar: w
Encoding: 119 119 90
Width: 500
GlyphClass: 2
Flags: W
LayerCount: 2
Fore
SplineSet
290 100 m 1,0,-1
 210 100 l 1,1,-1
 210 330 l 1,2,-1
 250 370 l 1,3,-1
 290 330 l 1,4,-1
 290 100 l 1,0,-1
380 430 m 1,5,-1
 380 640 l 1,6,-1
 410 720 l 1,7,8
 450 710 450 710 460 670 c 1,9,-1
 460 390 l 1,10,-1
 440 370 l 1,11,-1
 380 430 l 1,5,-1
390 0 m 1,12,-1
 91 0 l 1,13,14
 51 10 51 10 41 50 c 1,15,-1
 121 80 l 1,16,-1
 360 80 l 1,17,-1
 390 0 l 1,12,-1
40 70 m 1,18,-1
 40 330 l 1,19,-1
 60 350 l 1,20,-1
 120 290 l 1,21,-1
 120 100 l 1,22,-1
 40 70 l 1,18,-1
440 350 m 1,23,-1
 460 330 l 1,24,-1
 460 50 l 1,25,26
 450 10 450 10 410 0 c 1,27,-1
 380 80 l 1,28,-1
 380 290 l 1,29,-1
 440 350 l 1,23,-1
60 370 m 1,30,-1
 40 390 l 1,31,-1
 40 670 l 1,32,33
 50 710 50 710 90 720 c 1,34,-1
 120 640 l 1,35,-1
 120 430 l 1,36,-1
 60 370 l 1,30,-1
EndSplineSet
Validated: 1
EndChar
StartChar: x
Encoding: 120 120 91
Width: 500
GlyphClass: 2
Flags: W
LayerCount: 2
Fore
SplineSet
260 350 m 1,0,-1
 305 350 l 1,1,-1
 459 40 l 1,2,3
 439 0 439 0 379 0 c 1,4,-1
 260 242 l 1,5,-1
 260 350 l 1,0,-1
261 478 m 1,6,-1
 380 720 l 1,7,8
 440 720 440 720 460 680 c 1,9,-1
 306 370 l 1,10,-1
 261 370 l 1,11,-1
 261 478 l 1,6,-1
239 242 m 1,12,-1
 120 0 l 1,13,14
 60 0 60 0 40 40 c 1,15,-1
 194 350 l 1,16,-1
 239 350 l 1,17,-1
 239 242 l 1,12,-1
240 370 m 1,18,-1
 195 370 l 1,19,-1
 41 680 l 1,20,21
 61 720 61 720 121 720 c 1,22,-1
 240 477 l 1,23,-1
 240 370 l 1,18,-1
EndSplineSet
EndChar
StartChar: braceright
Encoding: 125 125 96
Width: 500
GlyphClass: 2
Flags: W
LayerCount: 2
Fore
SplineSet
210 100 m 1,0,-1
 210 330 l 1,1,-1
 230 350 l 1,2,-1
 290 290 l 1,3,-1
 290 70 l 1,4,-1
 210 100 l 1,0,-1
80 700 m 1,5,-1
 100 720 l 1,6,-1
 239 720 l 1,7,8
 279 710 279 710 289 670 c 1,9,-1
 209 640 l 1,10,-1
 140 640 l 1,11,-1
 80 700 l 1,5,-1
290 650 m 1,12,-1
 290 430 l 1,13,-1
 230 370 l 1,14,-1
 210 390 l 1,15,-1
 210 620 l 1,16,-1
 290 650 l 1,12,-1
140 80 m 1,17,-1
 209 80 l 1,18,-1
 289 50 l 1,19,20
 279 10 279 10 239 0 c 1,21,-1
 100 0 l 1,22,-1
 80 20 l 1,23,-1
 140 80 l 1,17,-1
370 400 m 1,24,-1
 410 360 l 1,25,-1
 370 320 l 1,26,-1
 300 320 l 1,27,-1
 260 360 l 1,28,-1
 300 400 l 1,29,-1
 370 400 l 1,24,-1
EndSplineSet
Validated: 1
EndChar
StartChar: asciitilde
Encoding: 126 126 97
Width: 500
GlyphClass: 2
Flags: W
LayerCount: 2
Fore
SplineSet
270 480 m 1,0,-1
 310 440 l 1,1,-1
 270 400 l 1,2,-1
 230 400 l 1,3,-1
 190 440 l 1,4,-1
 230 480 l 1,5,-1
 270 480 l 1,0,-1
110 479 m 1,6,-1
 150 439 l 1,7,-1
 110 399 l 1,8,-1
 70 399 l 1,9,-1
 30 439 l 1,10,-1
 70 479 l 1,11,-1
 110 479 l 1,6,-1
430 480 m 1,12,-1
 470 440 l 1,13,-1
 430 400 l 1,14,-1
 390 400 l 1,15,-1
 350 440 l 1,16,-1
 390 480 l 1,17,-1
 430 480 l 1,12,-1
190 540 m 1,18,-1
 230 500 l 1,19,-1
 190 460 l 1,20,-1
 150 460 l 1,21,-1
 110 500 l 1,22,-1
 150 540 l 1,23,-1
 190 540 l 1,18,-1
350 410 m 1,24,-1
 390 370 l 1,25,-1
 350 330 l 1,26,-1
 310 330 l 1,27,-1
 270 370 l 1,28,-1
 310 410 l 1,29,-1
 350 410 l 1,24,-1
EndSplineSet
EndChar
StartChar: endash
Encoding: 8211 8211 99
Width: 500
GlyphClass: 2
Flags: W
LayerCount: 2
Fore
SplineSet
430 400 m 1,0,-1
 470 360 l 1,1,-1
 430 320 l 1,2,-1
 70 320 l 1,3,-1
 30 360 l 1,4,-1
 70 400 l 1,5,-1
 430 400 l 1,0,-1
EndSplineSet
EndChar
StartChar: .notdef
Encoding: 65536 -1 0
Width: 500
Flags: W
LayerCount: 2
Fore
SplineSet
410 0 m 1,0,-1
 50 0 l 1,1,2
 10 10 10 10 0 50 c 1,3,-1
 80 80 l 1,4,-1
 380 80 l 1,5,-1
 410 0 l 1,0,-1
380 640 m 1,6,-1
 81 640 l 1,7,-1
 1 670 l 1,8,9
 11 710 11 710 51 720 c 1,10,-1
 410 720 l 1,11,-1
 380 640 l 1,6,-1
80 100 m 1,12,-1
 0 70 l 1,13,-1
 0 650 l 1,14,-1
 80 620 l 1,15,-1
 80 100 l 1,12,-1
480 50 m 1,16,17
 470 10 470 10 430 0 c 1,18,-1
 400 80 l 1,19,-1
 400 640 l 1,20,-1
 430 720 l 1,21,22
 470 710 470 710 480 670 c 1,23,-1
 480 50 l 1,16,17
EndSplineSet
EndChar
